<?xml version="1.0" standalone="no"?>
<!DOCTYPE svg PUBLIC "-//W3C//DTD SVG 20010904//EN"
 "http://www.w3.org/TR/2001/REC-SVG-20010904/DTD/svg10.dtd">
<svg version="1.0" xmlns="http://www.w3.org/2000/svg"
 width="512.000000pt" height="512.000000pt" viewBox="0 0 512.000000 512.000000"
 preserveAspectRatio="xMidYMid meet">

<g transform="translate(0.000000,512.000000) scale(0.100000,-0.100000)"
fill="#000000" stroke="none">
<path d="M1440 5085 c-113 -41 -282 -122 -348 -166 -257 -174 -410 -409 -484
-744 -18 -77 -21 -146 -28 -495 -8 -438 -13 -476 -67 -587 -55 -111 -157 -185
-275 -198 -29 -3 -63 -8 -75 -11 l-23 -4 0 -319 0 -319 77 -11 c182 -26 284
-120 334 -307 20 -72 23 -115 29 -479 8 -440 15 -494 81 -682 106 -301 303
-513 612 -658 119 -56 285 -112 296 -99 4 5 44 110 89 234 44 124 83 233 87
242 5 13 -5 23 -46 43 -102 52 -188 162 -232 300 -44 135 -48 180 -57 605 -9
439 -14 488 -64 630 -59 171 -188 334 -345 437 -47 31 -90 60 -94 63 -5 4 20
23 55 43 221 125 368 332 424 602 11 50 18 186 24 485 9 433 13 482 60 619 12
36 31 83 42 105 30 58 120 148 181 181 28 15 53 29 54 30 2 1 -37 111 -86 246
-70 192 -93 244 -107 246 -11 1 -62 -13 -114 -32z"/>
<path d="M3467 4881 c-48 -131 -87 -244 -87 -250 0 -6 22 -22 49 -36 103 -52
185 -163 231 -310 39 -129 50 -242 50 -540 1 -463 19 -597 105 -771 78 -159
194 -285 348 -375 52 -31 70 -49 48 -49 -5 0 -44 -23 -86 -51 -146 -95 -252
-215 -320 -361 -76 -166 -94 -308 -95 -750 0 -152 -5 -311 -11 -353 -35 -257
-122 -421 -269 -507 l-56 -33 88 -240 c48 -132 89 -244 91 -250 7 -16 202 54
337 122 69 34 156 86 193 114 237 179 382 425 443 754 13 69 18 183 24 485 6
373 8 399 30 465 29 91 61 144 116 195 56 51 116 77 210 91 l74 11 0 319 0
319 -22 4 c-13 3 -45 7 -72 10 -114 13 -216 87 -270 195 -55 108 -58 136 -66
561 -8 437 -15 496 -76 679 -62 187 -168 358 -291 472 -75 68 -213 159 -319
209 -83 39 -275 110 -298 110 -7 0 -50 -102 -99 -239z"/>
</g>
</svg>
